<svg xmlns="http://www.w3.org/2000/svg" xmlns:xlink="http://www.w3.org/1999/xlink" width="300" zoomAndPan="magnify" viewBox="0 0 1650 1453.499961" height="256.41" preserveAspectRatio="xMidYMid meet" version="1.0"><defs><g/><clipPath id="3d3cd1b05a"><path d="M 75.257812 81 L 1572 81 L 1572 1366 L 75.257812 1366 Z M 75.257812 81 " clip-rule="nonzero"/></clipPath><clipPath id="fd0d9dc70f"><path d="M 411 321 L 1241.953125 321 L 1241.953125 1147.136719 L 411 1147.136719 Z M 411 321 " clip-rule="nonzero"/></clipPath></defs><g clip-path="url(#3d3cd1b05a)"><path fill="#ff1616" d="M 1494.082031 898.964844 C 1507.789062 888.582031 1520.691406 878.925781 1533.402344 869.035156 C 1534.691406 868.039062 1535.101562 865.710938 1535.589844 863.914062 C 1537.703125 856.035156 1543.765625 850.699219 1551.761719 849.917969 C 1559.132812 849.195312 1566.953125 854.101562 1569.886719 861.273438 C 1572.777344 868.371094 1570.921875 876.328125 1565.171875 881.449219 C 1559.621094 886.394531 1550.058594 887.800781 1543.960938 883.207031 C 1539.5 879.863281 1536.570312 880.980469 1533.1875 883.871094 C 1516.585938 898.042969 1499.402344 911.589844 1483.664062 926.683594 C 1475.585938 934.421875 1470.152344 944.882812 1463.503906 954.109375 C 1463.972656 954.5 1464.421875 954.871094 1464.894531 955.261719 C 1474.160156 949.925781 1483.113281 943.941406 1492.734375 939.367188 C 1511.992188 930.21875 1531.523438 921.640625 1551.136719 913.234375 C 1556.414062 910.964844 1563.21875 908.601562 1567.226562 914.835938 C 1571.136719 920.933594 1566.289062 926.054688 1562.398438 930.453125 C 1535.433594 960.910156 1501.765625 981.609375 1464.480469 996.800781 C 1452.671875 1001.609375 1440.355469 1005.128906 1428.429688 1009.664062 C 1425.183594 1010.894531 1422.113281 1013.296875 1419.648438 1015.820312 C 1401.054688 1034.703125 1382.621094 1053.742188 1364.183594 1072.78125 C 1361.171875 1075.890625 1358.433594 1079.292969 1356.617188 1083.886719 C 1358.667969 1082.515625 1360.742188 1081.1875 1362.734375 1079.761719 C 1387.390625 1062.167969 1413.160156 1046.511719 1441.097656 1034.683594 C 1445.125 1032.984375 1449.445312 1031.554688 1453.769531 1031.046875 C 1461.335938 1030.128906 1465.617188 1035.054688 1463.289062 1042.484375 C 1461.707031 1047.507812 1458.832031 1052.335938 1455.703125 1056.65625 C 1434.039062 1086.640625 1405.828125 1109.335938 1374.40625 1128.21875 C 1348.441406 1143.820312 1321.382812 1157.050781 1291.917969 1164.890625 C 1289.75 1165.457031 1287.773438 1167.394531 1286.113281 1169.09375 C 1192.675781 1264.820312 1080.527344 1326.453125 949.394531 1353.097656 C 896.722656 1363.789062 843.539062 1367.777344 789.714844 1364.6875 C 652.050781 1356.8125 529.226562 1310.132812 421.460938 1224.394531 C 400.363281 1207.621094 381.457031 1188.132812 361.339844 1170.109375 C 358.386719 1167.472656 354.652344 1165.28125 350.898438 1164.03125 C 291.617188 1144.113281 239.003906 1113.851562 198.121094 1065.53125 C 193.390625 1059.9375 188.851562 1053.878906 185.785156 1047.3125 C 183.984375 1043.460938 183.535156 1037.027344 185.667969 1033.941406 C 187.308594 1031.535156 194.640625 1030.714844 198.101562 1032.238281 C 214.933594 1039.589844 231.671875 1047.332031 247.722656 1056.1875 C 261.859375 1063.984375 275.074219 1073.464844 289.796875 1081.558594 C 287.433594 1078.605469 285.28125 1075.441406 282.660156 1072.722656 C 263.949219 1053.273438 245.320312 1033.746094 226.214844 1014.667969 C 222.8125 1011.265625 217.613281 1009.191406 212.863281 1007.6875 C 187.015625 999.496094 162.066406 989.332031 138.917969 975.082031 C 119.152344 962.921875 100.773438 949.023438 85.464844 931.453125 C 81.359375 926.742188 75.433594 921.382812 79.988281 914.738281 C 84.507812 908.132812 91.699219 911.667969 97.546875 913.703125 C 125.722656 923.515625 152.136719 937.023438 177.453125 952.738281 C 178.902344 953.636719 180.367188 954.519531 181.992188 955.535156 C 177.941406 937.511719 136.785156 895.953125 109.570312 881.410156 C 102.941406 883.089844 97.683594 885.496094 92.367188 885.574219 C 83.273438 885.691406 76.234375 877.988281 75.785156 869.054688 C 75.335938 859.886719 81.769531 851.949219 91.074219 850.210938 C 99.542969 848.628906 108.242188 854.414062 111.3125 862.703125 C 112.601562 866.222656 115.125 869.796875 118.035156 872.164062 C 129.0625 881.136719 140.480469 889.640625 152.742188 899.0625 C 151.410156 895.5625 150.453125 892.824219 149.359375 890.128906 C 147.597656 885.808594 145.449219 881.625 143.980469 877.207031 C 139.308594 862.976562 132.542969 850.171875 123.355469 838.03125 C 101.984375 809.785156 91.757812 776.691406 86.363281 742.132812 C 84.289062 728.859375 83.449219 715.332031 83.078125 701.882812 C 82.980469 698.265625 86.070312 692.226562 88.808594 691.484375 C 92.269531 690.566406 98.09375 692.792969 100.773438 695.648438 C 114.359375 710.191406 123.101562 727.84375 130.511719 746.121094 C 141.03125 772.019531 149.261719 799.015625 147.753906 826.890625 C 146.582031 848.804688 152.664062 867.648438 161.050781 886.765625 C 184.140625 939.464844 216.089844 986.324219 254.449219 1029.015625 C 255.855469 1030.578125 256.777344 1032.574219 257.929688 1034.371094 C 258.476562 1033.863281 259.023438 1033.375 259.570312 1032.867188 C 253.121094 1019.75 246.394531 1006.75 240.234375 993.476562 C 210.886719 930.140625 192.136719 863.835938 184.746094 794.382812 C 183.574219 783.417969 182.890625 772.390625 181.796875 761.40625 C 181.5 758.511719 180.875 755.5625 179.820312 752.863281 C 168.226562 723.191406 161.734375 692.265625 157.238281 660.871094 C 156.867188 658.214844 156.261719 655.222656 157.0625 652.835938 C 158.214844 649.4375 160.015625 644.648438 162.613281 643.804688 C 165.332031 642.925781 170.160156 645.214844 172.566406 647.617188 C 176.4375 651.488281 179.058594 656.609375 183.105469 662.535156 C 201.113281 501.734375 266.355469 365.113281 383.625 255.097656 C 500.839844 145.125 641.082031 86.65625 801.40625 81.457031 C 970.273438 76.003906 1120.195312 129.367188 1247.359375 241.199219 C 1374.269531 352.800781 1444.402344 494.578125 1463.40625 663.550781 C 1467.042969 658.019531 1469.820312 653.523438 1472.871094 649.222656 C 1475.664062 645.292969 1479.085938 641.714844 1484.484375 643.394531 C 1490.054688 645.15625 1490.835938 650.277344 1490.015625 654.929688 C 1486.203125 676.648438 1482.488281 698.421875 1477.699219 719.925781 C 1475.15625 731.339844 1469.664062 742.113281 1467.042969 753.527344 C 1464.421875 764.925781 1463.425781 776.730469 1462.273438 788.421875 C 1456.132812 850.914062 1441.039062 911.199219 1416.738281 969.042969 C 1408.09375 989.605469 1397.714844 1009.429688 1388.132812 1029.601562 C 1387.566406 1030.8125 1387.175781 1032.121094 1387.976562 1034.214844 C 1395.796875 1025.183594 1403.8125 1016.308594 1411.378906 1007.0625 C 1446.59375 963.980469 1475.273438 917.046875 1494.867188 864.753906 C 1498.167969 855.957031 1499.96875 847.554688 1499.03125 837.757812 C 1497.054688 817.078125 1501.023438 796.667969 1506.304688 776.632812 C 1512.578125 752.746094 1521.867188 730.070312 1535.511719 709.390625 C 1539.148438 703.894531 1543.15625 698.421875 1547.96875 694.003906 C 1550.371094 691.777344 1555.417969 690.449219 1558.410156 691.425781 C 1560.929688 692.226562 1563.707031 696.898438 1563.765625 699.910156 C 1563.921875 710.40625 1563.667969 721.019531 1562.300781 731.4375 C 1557 771.902344 1545.289062 810.039062 1520.4375 843.273438 C 1516.410156 848.648438 1512.5 854.257812 1509.492188 860.21875 C 1506.421875 866.320312 1504.582031 873.042969 1502.082031 879.433594 C 1499.617188 885.671875 1496.976562 891.90625 1494.082031 898.964844 Z M 343.058594 1016.308594 C 343.332031 1016.328125 343.605469 1016.347656 343.878906 1016.386719 C 344.464844 1014.292969 345.109375 1012.242188 345.597656 1010.132812 C 353.046875 978.328125 368.0625 950.042969 385.972656 923.105469 C 389.003906 918.550781 392.523438 913.957031 399.074219 915.792969 C 405.445312 917.574219 405.875 923.515625 405.777344 928.421875 C 405.523438 939.425781 405.054688 950.53125 403.316406 961.378906 C 396.296875 1004.734375 380.8125 1044.613281 353.203125 1079.332031 C 351.503906 1081.480469 350.46875 1085.214844 350.976562 1087.851562 C 353.320312 1100.382812 355.726562 1112.953125 359.1875 1125.207031 C 364.738281 1144.894531 371.386719 1164.226562 387.164062 1178.632812 C 394.417969 1185.257812 401.496094 1192.101562 409.003906 1198.433594 C 559.277344 1325.046875 731.667969 1375.105469 926.007812 1344.867188 C 1049.164062 1325.710938 1156.171875 1271.582031 1249.023438 1188.621094 C 1268.085938 1171.574219 1281.144531 1151.8125 1287.460938 1127.359375 C 1290.21875 1116.667969 1292.269531 1105.796875 1295.125 1095.144531 C 1297.316406 1086.953125 1295.4375 1080.914062 1290.0625 1073.894531 C 1264.46875 1040.429688 1249.921875 1002.078125 1243.761719 960.617188 C 1241.984375 948.59375 1242.042969 936.242188 1242.160156 924.042969 C 1242.179688 921.246094 1245.582031 916.691406 1248.105469 916.164062 C 1251.171875 915.539062 1255.496094 917.613281 1258.25 919.800781 C 1261.203125 922.144531 1263.160156 925.859375 1265.25 929.183594 C 1282.300781 956.335938 1296.511719 984.738281 1303.433594 1016.40625 C 1305.878906 992.421875 1308.03125 968.535156 1309.75 944.625 C 1309.925781 942.300781 1308.03125 939.269531 1306.191406 937.472656 C 1300.582031 931.941406 1297.355469 925.664062 1298.625 917.710938 C 1300.304688 907.210938 1308.636719 899.960938 1318.859375 899.707031 C 1329.710938 899.433594 1338.121094 906.15625 1340.503906 916.964844 C 1342.597656 926.425781 1336.886719 936.378906 1327.210938 940.71875 C 1325.253906 941.597656 1322.457031 943.335938 1322.261719 944.917969 C 1320.386719 961.613281 1318.9375 978.367188 1317.394531 995.097656 C 1322.871094 988.023438 1326.625 980.457031 1330.554688 972.96875 C 1341.402344 952.328125 1352.097656 931.589844 1363.476562 911.238281 C 1365.21875 908.128906 1370.183594 906.839844 1373.664062 904.710938 C 1375.679688 908.285156 1379.023438 911.707031 1379.394531 915.441406 C 1380.15625 922.949219 1379.863281 930.6875 1378.984375 938.214844 C 1374.269531 979.265625 1356.832031 1014.449219 1327.679688 1043.402344 C 1317.179688 1053.820312 1310.6875 1064.355469 1309.125 1079.644531 C 1307.148438 1098.996094 1301.695312 1117.976562 1297.746094 1137.054688 C 1297.472656 1137.035156 1297.765625 1137.152344 1297.882812 1137.054688 C 1298.761719 1136.234375 1299.660156 1135.433594 1300.464844 1134.53125 C 1353 1074.753906 1391.59375 1006.867188 1418.105469 931.980469 C 1423.304688 917.296875 1424.871094 902.929688 1413.179688 890.03125 C 1410.246094 886.804688 1408.289062 882.679688 1405.886719 878.984375 C 1380.625 840.066406 1359.195312 799.367188 1347.875 753.996094 C 1346.703125 749.265625 1345.492188 744.339844 1345.628906 739.550781 C 1345.707031 736.636719 1347.71875 732.355469 1350.046875 731.300781 C 1352.390625 730.226562 1356.734375 731.574219 1359.273438 733.257812 C 1362.65625 735.503906 1365.355469 738.945312 1367.996094 742.171875 C 1385.746094 763.769531 1399.960938 787.5 1410.304688 813.460938 C 1414.253906 823.351562 1417.675781 833.457031 1421.351562 843.464844 C 1420.804688 824.464844 1418.769531 805.757812 1416.5625 787.089844 C 1415.40625 777.375 1414.136719 768.558594 1407.429688 759.644531 C 1379.824219 722.972656 1358.082031 682.902344 1344.355469 638.839844 C 1343.261719 635.339844 1342.03125 631.589844 1342.304688 628.070312 C 1342.597656 624.355469 1344.628906 620.777344 1345.902344 617.121094 C 1349.558594 618.433594 1353.644531 619.117188 1356.753906 621.246094 C 1359.878906 623.417969 1362.421875 626.761719 1364.515625 630.023438 C 1376.460938 648.574219 1388.210938 667.242188 1399.980469 685.890625 C 1401.191406 687.808594 1402.152344 689.859375 1403.207031 691.855469 C 1401.878906 673.910156 1399.453125 656.433594 1396.539062 639.035156 C 1396.148438 636.75 1393.648438 634.167969 1391.457031 632.917969 C 1382.679688 627.953125 1377.90625 619.292969 1379.6875 610.398438 C 1381.542969 601.191406 1388.679688 594.761719 1398.046875 593.898438 C 1406.726562 593.097656 1414.800781 597.867188 1418.222656 605.785156 C 1422.074219 614.71875 1419.316406 624.199219 1411.59375 630.902344 C 1409.914062 632.371094 1408.722656 635.652344 1408.996094 637.882812 C 1411.320312 656.882812 1414.058594 675.824219 1416.640625 694.785156 C 1419.628906 716.71875 1422.5625 738.652344 1425.710938 761.875 C 1426.882812 759.78125 1427.472656 759 1427.785156 758.121094 C 1435.644531 735.425781 1443.523438 712.730469 1451.265625 689.976562 C 1452.105469 687.476562 1452.925781 684.640625 1452.59375 682.121094 C 1448.742188 652.953125 1446.476562 623.417969 1440.355469 594.722656 C 1409.582031 450.300781 1337.730469 329.90625 1223.371094 236.351562 C 1095.816406 131.988281 948.53125 85.523438 784.105469 93.984375 C 731.6875 96.683594 680.265625 106.417969 630.425781 123.113281 C 459.507812 180.386719 333.90625 289.835938 254.410156 451.652344 C 222.382812 516.824219 203.671875 586.042969 196.066406 658.191406 C 194.835938 669.863281 191.980469 681.589844 197.046875 693.730469 C 204.378906 711.363281 209.96875 729.71875 216.265625 747.78125 C 217.769531 752.082031 219.078125 756.460938 220.46875 760.800781 C 220.859375 760.742188 221.25 760.660156 221.621094 760.601562 C 227.292969 718.164062 232.980469 675.746094 238.691406 633.054688 C 238.417969 632.800781 237.910156 632.234375 237.339844 631.804688 C 228.230469 625.136719 225.0625 616.28125 228.40625 606.878906 C 231.300781 598.707031 239.765625 593.253906 248.621094 593.839844 C 257.96875 594.46875 265.28125 600.722656 267.351562 609.910156 C 269.464844 619.195312 264.773438 627.542969 254.761719 633.230469 C 252.945312 634.265625 250.96875 636.554688 250.65625 638.527344 C 247.800781 656.140625 245.296875 673.8125 242.679688 691.464844 C 245.003906 689.800781 246.042969 687.652344 247.253906 685.636719 C 256.382812 670.527344 265.183594 655.183594 274.839844 640.421875 C 279.789062 632.878906 285.964844 626.054688 292.261719 619.566406 C 294.140625 617.632812 299.066406 616.476562 301.253906 617.59375 C 303.484375 618.746094 305.144531 623.144531 305.085938 626.074219 C 304.988281 630.882812 303.660156 635.789062 302.234375 640.441406 C 289.582031 681.453125 269.386719 718.828125 244.398438 753.3125 C 235.953125 764.960938 230.617188 776.242188 229.910156 790.199219 C 229.734375 793.875 229.109375 797.507812 228.738281 801.164062 C 227.292969 815.140625 225.863281 829.117188 224.4375 843.09375 C 228.699219 835.589844 231.242188 827.75 234.175781 820.046875 C 245.945312 789.261719 262.113281 761.074219 284.207031 736.480469 C 287.628906 732.667969 291.558594 728.132812 297.382812 731.125 C 303.484375 734.234375 302.195312 740.3125 301.058594 745.570312 C 299.300781 753.722656 297.265625 761.835938 294.824219 769.789062 C 281.351562 813.675781 259.375 853.398438 233.117188 890.65625 C 223.832031 903.828125 223.382812 916.808594 227.9375 930.121094 C 252.121094 1001 288.351562 1065.253906 336.039062 1123.039062 C 340.242188 1128.121094 344.914062 1132.8125 349.820312 1138.1875 C 345.910156 1120.144531 340.769531 1103.316406 338.929688 1086.152344 C 336.976562 1067.816406 330.308594 1053.859375 317.054688 1040.507812 C 284.246094 1007.453125 267.292969 966.851562 267.390625 919.78125 C 267.410156 914.054688 265.984375 906.878906 273.53125 904.867188 C 281.273438 902.8125 283.308594 910.046875 285.925781 915.011719 C 299.164062 939.953125 312.144531 965.015625 325.226562 990.035156 C 326.183594 991.875 327.238281 993.652344 328.257812 995.46875 C 328.257812 979.539062 326.730469 964.035156 325.539062 948.476562 C 325.207031 944.078125 323.835938 941.714844 319.300781 940.089844 C 310.757812 937.042969 305.324219 927.484375 306.183594 919.058594 C 307.160156 909.597656 314.003906 901.894531 323.132812 899.980469 C 331.992188 898.121094 341.472656 902.324219 345.851562 910.066406 C 350.585938 918.433594 350.074219 928.96875 342.785156 935.105469 C 337.054688 939.933594 336.664062 944.917969 337.894531 951.195312 C 338.421875 953.832031 338.441406 956.570312 338.65625 959.246094 C 340.066406 978.308594 341.550781 997.308594 343.058594 1016.308594 Z M 1308.089844 1146.066406 C 1363.203125 1124.875 1412.296875 1095.339844 1447.21875 1046.039062 C 1394.058594 1069.949219 1346.078125 1101.046875 1308.089844 1146.066406 Z M 199.507812 1046.46875 C 234.46875 1094.929688 283.113281 1124.503906 338.871094 1147.199219 C 320.847656 1117 239.375 1058.0625 199.507812 1046.46875 Z M 95.550781 709.214844 C 98.25 754.71875 108.183594 797.863281 136.824219 834.789062 C 135.964844 788.734375 122.457031 746.785156 95.550781 709.214844 Z M 1509.234375 835.804688 C 1531.191406 815.414062 1557.742188 733.433594 1550.742188 708.058594 C 1524.703125 746.863281 1510.9375 788.714844 1509.234375 835.804688 Z M 393.558594 933.367188 C 368.6875 972.714844 350.957031 1012.183594 353.027344 1058.960938 C 372.03125 1038.867188 395.417969 966.949219 393.558594 933.367188 Z M 1293.230469 1058.21875 C 1295.847656 1012.007812 1278.371094 972.441406 1253.578125 935.300781 C 1256.238281 979.695312 1268.613281 1020.941406 1293.230469 1058.21875 Z M 207.308594 991.464844 C 177.121094 961.222656 139.25 943.6875 100.128906 928.207031 C 129.847656 959.230469 166.152344 979.226562 207.308594 991.464844 Z M 1439.789062 991.894531 C 1467.003906 988.277344 1530.449219 950.707031 1546.988281 928.402344 C 1522.472656 931.921875 1448.390625 975.804688 1439.789062 991.894531 Z M 330.542969 1036.851562 C 331.796875 1027.078125 292.164062 945.175781 280.042969 932.429688 C 279.003906 963.628906 304.773438 1016.894531 330.542969 1036.851562 Z M 1315.929688 1036.578125 C 1346.117188 1008.273438 1363.476562 973.832031 1366.46875 932.585938 C 1348.246094 966.578125 1326.957031 999.144531 1315.929688 1036.578125 Z M 287.0625 752.941406 C 265.632812 773.230469 233.175781 843.703125 232.023438 872.066406 C 255.835938 834.769531 275.171875 796.277344 287.0625 752.941406 Z M 1415.25 871.402344 C 1405.496094 828.433594 1389.539062 788.324219 1360.9375 754.113281 C 1371.984375 796.492188 1391.261719 835.042969 1415.25 871.402344 Z M 171.023438 668.984375 C 179.429688 709.410156 185.863281 750.632812 212.53125 786.425781 C 210.691406 764.984375 182.890625 686.285156 171.023438 668.984375 Z M 1434.78125 784.53125 C 1461.140625 750.515625 1467.726562 709.371094 1475.546875 668.652344 C 1458.753906 706.085938 1442.761719 743.8125 1434.78125 784.53125 Z M 209.167969 870.421875 C 209.753906 870.324219 210.359375 870.207031 210.945312 870.109375 C 212.082031 853.808594 213.214844 837.503906 214.367188 821.222656 C 214.640625 817.332031 216.597656 812.386719 214.914062 809.765625 C 209.578125 801.398438 202.890625 793.914062 196.710938 786.09375 C 196.105469 786.367188 195.5 786.660156 194.875 786.933594 C 199.644531 814.769531 204.417969 842.585938 209.167969 870.421875 Z M 1451.226562 788.324219 C 1450.542969 788.128906 1449.859375 787.914062 1449.152344 787.714844 C 1443.660156 794.480469 1438.105469 801.203125 1432.710938 808.046875 C 1431.890625 809.082031 1431.480469 810.78125 1431.578125 812.113281 C 1433.023438 830.46875 1434.585938 848.824219 1436.132812 867.160156 C 1436.738281 867.238281 1437.324219 867.316406 1437.929688 867.394531 C 1442.371094 841.0625 1446.808594 814.691406 1451.226562 788.324219 Z M 287.492188 644.667969 C 266.003906 672.289062 250.03125 702.644531 241.625 736.753906 C 260.707031 707.960938 276.601562 677.566406 287.492188 644.667969 Z M 1359.488281 644.667969 C 1370.515625 677.664062 1386.355469 708.078125 1405.476562 736.851562 C 1396.871094 702.722656 1381.074219 672.171875 1359.488281 644.667969 Z M 1359.488281 644.667969 " fill-opacity="1" fill-rule="nonzero"/></g><g clip-path="url(#fd0d9dc70f)"><path fill="#ff1616" d="M 933.820312 390.753906 C 970.777344 434.714844 982.921875 509.242188 967.847656 562.179688 C 903.691406 787.445312 706.660156 682.617188 668.460938 820.015625 C 722.394531 766.0625 785.988281 787.367188 850.398438 759.5625 C 836.480469 780.140625 823.738281 801.132812 813.667969 823.246094 L 813.667969 823.238281 C 780.761719 886.363281 720.632812 919.050781 716.429688 983.65625 C 713.96875 1021.5 729.296875 1059.882812 769.285156 1077.90625 C 744.433594 1041.566406 742.75 981.273438 791.4375 930.859375 C 792.152344 947.851562 794.808594 965.707031 799.792969 984.597656 C 817.878906 1053.15625 877.140625 1095.390625 940.445312 1104.679688 C 1021.328125 1116.546875 1079.023438 1073.722656 1131.234375 1017.535156 C 1199.9375 943.59375 1241.953125 844.566406 1241.953125 735.730469 C 1241.953125 507.464844 1056.75 321.28125 827.011719 321.28125 C 820.359375 321.28125 813.742188 321.441406 807.160156 321.75 C 887.664062 335.0625 1016.15625 376.207031 1096.957031 462.230469 C 1170.648438 534.78125 1211.515625 632.796875 1211.515625 735.730469 C 1211.515625 836.179688 1172.894531 927.617188 1109.679688 996.050781 C 1064.816406 1044.613281 1009.796875 1082.507812 939.894531 1066.253906 C 846.644531 1044.566406 800.019531 922.8125 861.148438 817.238281 C 891.640625 764.578125 940.09375 728.195312 976.769531 665.316406 C 996.164062 632.0625 1009.738281 594.972656 1017.484375 554.070312 C 1028.246094 626 1006.671875 681.789062 951.9375 745.75 C 874.152344 827.839844 857.566406 973.65625 932.410156 1010.984375 C 910.6875 962.96875 925.484375 847.308594 1038.070312 816.035156 C 1076.15625 806.382812 1110.640625 806.214844 1127.914062 796.238281 C 1144.609375 786.59375 1147.066406 769.148438 1138.214844 753.597656 C 1127.710938 738.441406 1126.933594 733.683594 1129.285156 730.839844 C 1139.878906 717.996094 1137.210938 703.917969 1123.066406 699.480469 C 1132.039062 690.847656 1131.714844 681.347656 1120.960938 672.488281 C 1103.117188 655.902344 1108.320312 653.402344 1121.738281 641.394531 C 1132.542969 630.925781 1135.6875 621.214844 1125.65625 615.339844 C 1108.808594 605.472656 1087.113281 590.964844 1070.117188 581.011719 C 1056.152344 573.246094 1051.199219 559.640625 1056.515625 539.761719 C 1073.710938 535.585938 1083.492188 529.148438 1086.089844 518.335938 C 1080.410156 525.96875 1069.664062 530.105469 1058.742188 529.933594 C 1064.496094 486.742188 1008.746094 403.65625 933.820312 390.753906 Z M 937.621094 491.53125 C 936.070312 305.957031 666.609375 340.84375 574.742188 406.613281 C 662.074219 377.269531 741.9375 386.757812 805.238281 415.253906 C 691.9375 436.921875 601.558594 444.761719 534.105469 438.769531 C 623.425781 481.429688 710.171875 490.90625 806.847656 474.902344 C 844.675781 468.640625 910.792969 438.1875 937.621094 491.53125 Z M 549.273438 525.328125 C 519.136719 527.121094 480.519531 523.277344 477.214844 487.367188 L 477.070312 485.777344 L 478.664062 485.324219 C 509.03125 476.757812 542.851562 492.871094 551.105469 522.890625 L 551.734375 525.183594 L 549.277344 525.328125 Z M 804.746094 570.109375 C 804.367188 599.707031 777.523438 624.414062 747.09375 625.109375 L 745.324219 625.152344 L 745.050781 623.46875 C 739.472656 589.566406 773.851562 575.109375 802.230469 568.195312 L 804.78125 567.574219 Z M 723.640625 576.519531 C 717.207031 605.300781 686.523438 625.929688 656.300781 621.300781 L 654.515625 621.023438 L 654.601562 619.285156 C 656.28125 585.007812 691.796875 576.222656 721.515625 574.164062 L 724.203125 573.976562 Z M 873.75 546.609375 C 847.5 545.269531 814.585938 538.136719 815.960938 506.679688 L 816.027344 505.109375 L 817.636719 504.84375 C 844.835938 500.332031 872.257812 517.5 875.863281 544.414062 L 876.171875 546.734375 L 873.753906 546.609375 Z M 876.71875 552.914062 C 878.855469 579.898438 855.8125 603.285156 828.34375 605.59375 L 826.628906 605.742188 L 826.203125 604.132812 C 818.242188 573.894531 849.066406 558.875 874.09375 551.203125 L 876.523438 550.460938 Z M 931.03125 522.09375 C 908.886719 522.734375 880.820312 518.808594 879.394531 492.457031 L 879.308594 490.871094 L 880.90625 490.472656 C 903.320312 484.863281 927.734375 497.53125 932.941406 519.714844 L 933.484375 522.019531 L 931.035156 522.09375 Z M 934.1875 532.378906 C 937.199219 554.910156 918.917969 575.472656 895.957031 578.328125 L 894.269531 578.539062 L 893.765625 576.972656 C 885.707031 551.804688 910.632812 538.148438 931.488281 530.796875 L 933.863281 529.960938 Z M 802.738281 562.339844 C 773.941406 559.222656 739.378906 549.195312 743.578125 514.5625 L 743.765625 513.035156 L 745.355469 512.855469 C 775.613281 509.429688 803.449219 530.625 804.984375 560.308594 L 805.101562 562.597656 Z M 722.605469 568.84375 C 694.949219 558.222656 666.445312 539.707031 680.144531 507.511719 L 680.742188 506.105469 L 682.300781 506.320312 C 712.65625 510.53125 732.234375 538.804688 725.320312 567.476562 L 724.789062 569.683594 Z M 650.476562 558.324219 C 626.21875 546.113281 603.691406 527.011719 618.921875 499.183594 L 619.65625 497.84375 L 621.183594 498.199219 C 648.429688 504.578125 662.1875 532.214844 653.328125 557.226562 L 652.566406 559.375 Z M 647.976562 569.617188 C 633.941406 592.339844 601.734375 602.667969 577.019531 590.359375 L 575.398438 589.550781 L 576.070312 587.914062 C 587.898438 559.074219 620.1875 560.425781 646.722656 566.730469 L 649.371094 567.355469 Z M 586.648438 534.722656 C 565.570312 522.25 547.15625 503.792969 562.714844 479.824219 L 563.546875 478.550781 L 565.035156 479 C 589.121094 486.304688 599.296875 511.9375 589.5625 533.828125 L 588.640625 535.898438 Z M 585.808594 543.113281 C 574.21875 563.917969 545.6875 574.980469 522.890625 565.070312 L 521.207031 564.339844 L 521.8125 562.660156 C 531.265625 536.371094 560.160156 535.867188 584.402344 540.277344 L 587.113281 540.773438 Z M 775.683594 1147.042969 C 673.871094 1138.3125 573.90625 1075.289062 527.269531 1022.320312 C 446.417969 938.023438 503.75 838.679688 527.257812 745.507812 C 544.796875 675.992188 522.257812 648.941406 496.664062 648.097656 C 475.054688 647.386719 451.402344 661.214844 446.308594 726.089844 C 441.921875 781.921875 450.238281 853.136719 470.796875 948.507812 C 432.203125 885.648438 409.140625 798.660156 411.632812 725.453125 C 409.09375 530.6875 689.632812 579.867188 659.824219 760.878906 C 654.347656 794.148438 642.882812 830.015625 634.300781 866.960938 C 663.179688 841.546875 710.113281 820.65625 765.851562 828.859375 C 668.175781 859.9375 588.160156 966.875 662.46875 1061.523438 C 685.933594 1091.40625 721.980469 1120.207031 775.683594 1147.042969 Z M 601.710938 1046.984375 C 500.921875 911.714844 737.421875 700.988281 554.425781 631.644531 C 575.398438 661.375 579.949219 703.179688 568.078125 757.0625 C 539.390625 887.285156 477.234375 956.925781 601.710938 1046.984375 Z M 601.710938 1046.984375 " fill-opacity="1" fill-rule="evenodd"/></g><g fill="#ff1616" fill-opacity="1"><g transform="translate(488.933882, 1144.3156)"><g><path d="M 18.941406 17.777344 C 20.414062 19.160156 25.519531 23.949219 31.730469 24.609375 C 35.359375 24.972656 39.835938 23.449219 43.289062 19.769531 C 47.570312 15.203125 47.972656 9.859375 44.429688 4.6875 C 48.910156 6.402344 53.441406 5.113281 57.308594 0.992188 C 59.796875 -1.65625 60.902344 -4.3125 60.859375 -7.214844 C 60.824219 -11.308594 58.304688 -15.703125 53.398438 -20.308594 L 38.085938 -34.679688 L 2.945312 2.761719 Z M 39.5 -18.582031 L 44.113281 -14.253906 C 46.664062 -11.859375 47.710938 -10.417969 47.945312 -8.996094 C 48.179688 -7.671875 47.742188 -6.417969 46.589844 -5.191406 C 44.289062 -2.738281 41.566406 -2.984375 38.476562 -5.886719 L 32.683594 -11.320312 Z M 26.238281 -4.449219 L 32.960938 1.859375 C 36.542969 5.222656 38.097656 7.695312 35.195312 10.789062 C 33.90625 12.160156 32.683594 12.675781 31.394531 12.574219 C 29.390625 12.449219 27.390625 10.941406 25.183594 8.867188 L 19.097656 3.15625 Z M 26.238281 -4.449219 "/></g></g></g><g fill="#ff1616" fill-opacity="1"><g transform="translate(538.564009, 1188.826731)"><g><path d="M 31.902344 22.609375 L 38.128906 13.824219 L 19.351562 0.515625 L 24.875 -7.28125 L 41.84375 4.742188 L 48.03125 -3.988281 L 31.0625 -16.011719 L 36.589844 -23.808594 L 55.367188 -10.5 L 61.59375 -19.285156 L 32.988281 -39.5625 L 3.292969 2.335938 Z M 31.902344 22.609375 "/></g></g></g><g fill="#ff1616" fill-opacity="1"><g transform="translate(589.300569, 1223.399576)"><g><path d="M 11.472656 5.945312 L 18.164062 -0.972656 L 33.34375 6.894531 L 31.550781 16.351562 L 42.902344 22.234375 L 50.933594 -31.441406 L 39.34375 -37.449219 L 0.121094 0.0625 Z M 38.976562 -22.554688 L 35.335938 -3.824219 L 25.773438 -8.777344 Z M 38.976562 -22.554688 "/></g></g></g><g fill="#ff1616" fill-opacity="1"><g transform="translate(650.370967, 1253.504809)"><g><path d="M 23.632812 9.300781 C 38.597656 14.421875 47.03125 8.277344 50.847656 -2.867188 L 61.269531 -33.300781 L 49.804688 -37.226562 L 39.386719 -6.789062 C 37.6875 -1.824219 34.507812 1.640625 27.121094 -0.886719 C 19.671875 -3.4375 19.285156 -8.125 20.984375 -13.089844 L 31.40625 -43.527344 L 19.945312 -47.449219 L 9.523438 -17.011719 C 5.707031 -5.871094 8.605469 4.15625 23.632812 9.300781 Z M 23.632812 9.300781 "/></g></g></g><g fill="#ff1616" fill-opacity="1"><g transform="translate(717.295636, 1274.646078)"><g><path d="M 26.574219 5.078125 L 34.191406 -34.785156 L 48.402344 -32.070312 L 50.421875 -42.648438 L 10.164062 -50.339844 L 8.144531 -39.761719 L 22.355469 -37.046875 L 14.742188 2.816406 Z M 26.574219 5.078125 "/></g></g></g><g fill="#ff1616" fill-opacity="1"><g transform="translate(777.869483, 1285.076065)"><g><path d="M 30.449219 1.535156 L 31.476562 -18.832031 L 51.386719 -48.824219 L 37.339844 -49.53125 L 25.746094 -30.777344 L 16.097656 -50.605469 L 2.050781 -51.3125 L 18.839844 -19.46875 L 17.8125 0.898438 Z M 30.449219 1.535156 "/></g></g></g><g fill="#ff1616" fill-opacity="1"><g transform="translate(844.887099, 1286.569037)"><g/></g></g><g fill="#ff1616" fill-opacity="1"><g transform="translate(881.075964, 1284.192302)"><g><path d="M 25.464844 -3.222656 C 37.734375 -5.335938 44.15625 -12.859375 42.441406 -22.808594 C 40.421875 -34.550781 29.398438 -35.109375 20.511719 -35.558594 C 14.511719 -35.894531 9.410156 -36.175781 8.78125 -39.824219 C 8.234375 -43.007812 11.324219 -44.90625 14.703125 -45.488281 C 19.679688 -46.34375 23.574219 -44.351562 25.507812 -40.246094 L 37.78125 -42.359375 C 34.246094 -53.359375 23.871094 -57.308594 13.257812 -55.480469 C 2.910156 -53.699219 -4.65625 -47.277344 -2.851562 -36.796875 C -0.933594 -25.652344 9.601562 -25.144531 18.421875 -24.683594 C 24.621094 -24.386719 29.921875 -24.136719 30.605469 -20.15625 C 31.292969 -16.175781 27.730469 -13.855469 23.683594 -13.160156 C 19.109375 -12.371094 14.234375 -13.308594 11.367188 -19.644531 L -0.902344 -17.53125 C 2.472656 -3.5 15.914062 -1.578125 25.464844 -3.222656 Z M 25.464844 -3.222656 "/></g></g></g><g fill="#ff1616" fill-opacity="1"><g transform="translate(947.31656, 1271.369236)"><g><path d="M 12.285156 -4.011719 L 12.046875 -13.632812 L 28.296875 -18.9375 L 33.78125 -11.03125 L 45.9375 -15 L 13.300781 -58.363281 L 0.886719 -54.308594 L 0.128906 -0.0429688 Z M 11.25 -43.605469 L 22.050781 -27.871094 L 11.8125 -24.53125 Z M 11.25 -43.605469 "/></g></g></g><g fill="#ff1616" fill-opacity="1"><g transform="translate(1011.155668, 1248.791785)"><g><path d="M 33.347656 -16.066406 L 28.671875 -25.769531 L 9.816406 -16.683594 L -7.800781 -53.242188 L -18.652344 -48.015625 L 3.636719 -1.753906 Z M 33.347656 -16.066406 "/></g></g></g><g fill="#ff1616" fill-opacity="1"><g transform="translate(1062.226094, 1223.353801)"><g><path d="M 23.726562 -14.523438 C 38.207031 -24.230469 38 -39.164062 30.019531 -51.070312 C 22.039062 -62.976562 8.378906 -68.730469 -6.101562 -59.027344 C -20.691406 -49.246094 -20.507812 -34.464844 -12.523438 -22.554688 C -4.542969 -10.648438 9.132812 -4.746094 23.726562 -14.523438 Z M 17.730469 -23.46875 C 11.023438 -18.972656 3.472656 -21.53125 -1.957031 -29.636719 C -7.355469 -37.6875 -6.8125 -45.585938 -0.105469 -50.082031 C 6.601562 -54.578125 14.058594 -52.039062 19.453125 -43.988281 C 24.886719 -35.882812 24.4375 -27.964844 17.730469 -23.46875 Z M 17.730469 -23.46875 "/></g></g></g><g fill="#ff1616" fill-opacity="1"><g transform="translate(1123.927081, 1179.952629)"><g><path d="M 11.789062 -10.945312 L -9.550781 -33.929688 L 26.238281 -24.363281 L 35.214844 -32.695312 L 0.277344 -70.328125 L -8.554688 -62.132812 L 12.648438 -39.296875 L -23.003906 -48.714844 L -31.980469 -40.378906 L 2.960938 -2.746094 Z M 11.789062 -10.945312 "/></g></g></g><g fill="#ff1616" fill-opacity="1"><g transform="translate(513.624321, 390.04061)"><g><path d="M 31.316406 -76.585938 C 35.25 -85.710938 34.042969 -96.28125 26.496094 -106.253906 C 13.574219 -123.328125 -1.792969 -122.046875 -16.191406 -111.152344 L -53.210938 -83.132812 L 6.171875 -4.667969 L 24.578125 -18.601562 L 1.699219 -48.835938 L 16.609375 -60.121094 L 50.90625 -38.523438 L 70.339844 -53.234375 Z M -6.308594 -92.753906 C -0.34375 -97.265625 4.867188 -97.003906 8.757812 -91.863281 C 12.804688 -86.515625 11.640625 -81.429688 5.675781 -76.914062 L -10.367188 -64.773438 L -22.351562 -80.613281 Z M -6.308594 -92.753906 "/></g></g></g><g fill="#ff1616" fill-opacity="1"><g transform="translate(610.84604, 321.621493)"><g><path d="M 69.050781 -29.09375 L 61.039062 -48.109375 L 20.390625 -30.984375 L 13.28125 -47.859375 L 50.003906 -63.335938 L 42.042969 -82.230469 L 5.320312 -66.757812 L -1.792969 -83.632812 L 38.855469 -100.761719 L 30.839844 -119.777344 L -31.078125 -93.683594 L 7.128906 -3.003906 Z M 69.050781 -29.09375 "/></g></g></g><g fill="#ff1616" fill-opacity="1"><g transform="translate(711.459195, 282.102249)"><g><path d="M 37.121094 -5.511719 C 70.289062 -10.4375 85.957031 -30.496094 81.277344 -62.007812 C 76.632812 -93.261719 55.835938 -107.773438 22.667969 -102.847656 L -6.800781 -98.472656 L 7.652344 -1.136719 Z M 19.066406 -81.453125 L 25.445312 -82.398438 C 43.175781 -85.03125 55.695312 -77.113281 58.441406 -58.613281 C 61.378906 -38.84375 52.589844 -28.671875 33.835938 -25.886719 L 27.457031 -24.9375 Z M 19.066406 -81.453125 "/></g></g></g><g fill="#ff1616" fill-opacity="1"><g transform="translate(831.21518, 267.931385)"><g><path d="M 37.273438 4.378906 C 70.574219 8.292969 90.9375 -6.972656 94.65625 -38.609375 C 98.34375 -69.992188 82.058594 -89.4375 48.757812 -93.347656 L 19.167969 -96.824219 L 7.683594 0.902344 Z M 39.6875 -73.636719 L 46.09375 -72.886719 C 63.898438 -70.792969 73.910156 -59.878906 71.730469 -41.304688 C 69.394531 -21.453125 58.253906 -13.929688 39.425781 -16.144531 L 33.019531 -16.894531 Z M 39.6875 -73.636719 "/></g></g></g><g fill="#ff1616" fill-opacity="1"><g transform="translate(950.175905, 284.722675)"><g><path d="M 48.335938 22.480469 C 79.175781 35.308594 102.796875 19.152344 113.347656 -6.210938 C 123.898438 -31.574219 118.601562 -59.476562 87.761719 -72.304688 C 56.683594 -85.230469 33.28125 -69.265625 22.730469 -43.902344 C 12.179688 -18.539062 17.257812 9.554688 48.335938 22.480469 Z M 56.261719 3.425781 C 41.972656 -2.515625 38.054688 -17.273438 45.234375 -34.542969 C 52.367188 -51.6875 65.546875 -59.195312 79.835938 -53.253906 C 94.125 -47.308594 97.976562 -32.71875 90.84375 -15.570312 C 83.660156 1.695312 70.550781 9.371094 56.261719 3.425781 Z M 56.261719 3.425781 "/></g></g></g><g fill="#ff1616" fill-opacity="1"><g transform="translate(1071.153536, 340.739786)"><g><path d="M 41.007812 31.722656 L 88.589844 -29.785156 L 110.523438 -12.820312 L 123.148438 -29.140625 L 61.027344 -77.199219 L 48.402344 -60.878906 L 70.332031 -43.910156 L 22.746094 17.597656 Z M 41.007812 31.722656 "/></g></g></g></svg>