<svg xmlns="http://www.w3.org/2000/svg" version="1.1" xmlns:xlink="http://www.w3.org/1999/xlink" xmlns:svgjs="http://svgjs.com/svgjs" width="100" height="100" x="0" y="0" viewBox="0 0 511.998 511" style="enable-background:new 0 0 512 512" xml:space="preserve" class=""><g transform="matrix(1,0,0,1,2.8421709430404007e-13,1.7053025658242404e-13)"><path fill="#9b5729" d="M246.945 54.492c26.04 0 50.403 5.207 71.016 14.95C317.03 31.21 285.609.5 246.945.5c-38.66 0-70.086 30.71-71.015 68.941 20.613-9.742 44.976-14.949 71.015-14.949zm0 0" data-original="#9b5729" class=""></path><path fill="#7f441c" d="M209.816 58.227c5.13-27.524 26.29-49.442 53.493-55.825A71.656 71.656 0 0 0 246.945.5c-38.66 0-70.086 30.71-71.015 68.941 10.425-4.93 21.808-8.695 33.886-11.214zm0 0" data-original="#7f441c" class=""></path><path fill="#ff6666" d="M369.637 392.578a75.946 75.946 0 0 0-15.95-5.492l10.739 10.68zM381.844 442.895l-53.551-53.258-59.785 91.578a25.747 25.747 0 0 1-17.895 11.402h-7.34a25.748 25.748 0 0 1-17.89-11.402l-62.676-96.004h-5.73c-41.95 0-76.079 33.941-76.079 75.664v27.457a5.388 5.388 0 0 0 5.391 5.387h321.313c2.976 0 5.39-2.41 5.39-5.387v-27.457c0-1.398-.043-2.781-.12-4.16-11.727-.656-22.661-5.5-31.028-13.82zm0 0" data-original="#ff6666"></path><path fill="#fe3745" d="m164.703 389.375-2.715-4.164h-5.011c-41.95 0-76.079 33.941-76.079 75.664v27.46a5.39 5.39 0 0 0 5.391 5.388h32.563a5.39 5.39 0 0 1-5.391-5.387v-27.461c0-33.074 21.453-61.238 51.242-71.5zm0 0" data-original="#fe3745"></path><path fill="#def9ff" d="M323.844 385.21H300.41l-53.465 81.9-53.468-81.9h-31.489l63.395 97.106a25.748 25.748 0 0 0 17.89 11.403h7.34a25.747 25.747 0 0 0 17.895-11.403l60.219-92.246zm0 0" data-original="#def9ff"></path><path fill="#f8d5ab" d="M277.715 377.938v-22.133a101.658 101.658 0 0 1-17.426 1.511h-26.68c-5.851 0-11.687-.515-17.433-1.523v22.144c0 4.012-3.281 7.274-7.313 7.274H192.75l54.191 83.016 54.196-83.016H285.03c-4.035 0-7.316-3.262-7.316-7.274zm0 0" data-original="#f8d5ab"></path><path fill="#eac092" d="M213.855 383.238a7.288 7.288 0 0 1-4.992 1.973H192.75l54.195 83.016 11.196-17.149zm0 0" data-original="#eac092" class=""></path><path fill="#b57a4e" d="M115.68 206.57h17.754v-24.222c0-2.938 2.406-5.325 5.359-5.325h90.355c16.832 0 32.875-8.875 41.856-23.164a5.337 5.337 0 0 1 4.547-2.504c1.86 0 3.558.938 4.539 2.504 8.988 14.29 25.027 23.164 41.86 23.164h33.148c2.953 0 5.355 2.387 5.355 5.325v24.222h17.762c1.937 0 3.805.285 5.582.785v-36.46c0-74.336-61.27-117.403-136.852-117.403S110.094 96.56 110.094 170.895v36.464a20.443 20.443 0 0 1 5.586-.789zm0 0" data-original="#b57a4e" class=""></path><path fill="#9b5729" d="M115.68 206.57h17.754v-24.222c0-2.938 2.406-5.325 5.359-5.325h3.887v-6.128c0-68.915 52.656-110.946 120.558-116.711a191.163 191.163 0 0 0-16.293-.692c-75.582 0-136.851 43.067-136.851 117.403v36.46c1.777-.5 3.648-.785 5.586-.785zm0 0" data-original="#9b5729" class=""></path><path fill="#f8d5ab" d="M360.457 247.277c13.508 1.434 25.262 8.793 32.566 19.41 3.957-3.792 6.422-9.085 6.422-14.953v-25.277c0-11.535-9.504-20.887-21.23-20.887h-17.758zm0 0" data-original="#f8d5ab"></path><path fill="#ffe2b8" d="M108.125 265.332c6.168-1.55 12.406-2.336 18.547-2.336 2.328 0 4.633.121 6.906.344a98.186 98.186 0 0 1-.144-5.27v-52.5H115.68c-11.73 0-21.23 9.352-21.23 20.887v25.277c0 7.52 4.05 14.094 10.109 17.77a4.72 4.72 0 0 1 3.566-4.172zm0 0" data-original="#ffe2b8" class=""></path><path fill="#ffe2b8" d="M315.434 333.695c-1.864-1.855-2.895-4.324-2.895-6.945a9.762 9.762 0 0 1 4.926-8.492l.918-.531-.586-.887a44.648 44.648 0 0 1-7.48-24.781c0-24.836 20.32-45.043 45.296-45.043 1.98 0 3.926.14 5.84.386v-65.054c0-3.493-2.844-6.325-6.355-6.325h-33.149c-16.488 0-32.207-8.695-41.012-22.695a6.352 6.352 0 0 0-5.386-2.969 6.354 6.354 0 0 0-5.39 2.97c-8.806 14-24.524 22.694-41.013 22.694h-90.355c-3.512 0-6.36 2.832-6.36 6.325v75.722c0 1.739.047 3.47.137 5.184 15.227 1.27 29.04 7.437 39.371 17.715 15.91 15.82 21.786 39.543 15.715 63.449a4.698 4.698 0 0 1-1.336 2.254c14.125 7.43 30.22 11.648 47.29 11.648h26.68c22.495 0 43.3-7.316 60.12-19.675zm0 0" data-original="#ffe2b8" class=""></path><path fill="#ffc987" d="M154.613 268.969a99.417 99.417 0 0 1-.601-10.899v-75.726c0-3.492 2.847-6.32 6.36-6.32h-21.579c-3.512 0-6.36 2.828-6.36 6.32v75.726c0 1.739.047 3.465.137 5.18 7.813.652 15.254 2.594 22.043 5.719zM187.656 344.418a4.716 4.716 0 0 1-1.336 2.254c14.125 7.43 30.22 11.648 47.29 11.648h21.577c-25.042 0-47.984-9.066-65.671-24.054a76.008 76.008 0 0 1-1.86 10.152zm0 0" data-original="#ffc987"></path><g fill="#72563c"><path d="M256.168 272.934h-12.582c-7.367 0-13.36-5.965-13.36-13.297v-20.684c0-4.144 3.356-7.5 7.5-7.5a7.5 7.5 0 0 1 7.5 7.5v18.98h10.938c4.145 0 7.5 3.356 7.5 7.5a7.494 7.494 0 0 1-7.496 7.5zM186.621 237.918c-10.574 0-21.148-4-29.2-12.008A7.5 7.5 0 0 1 168 215.273c10.266 10.211 26.973 10.211 37.242 0a7.5 7.5 0 0 1 10.606.032c2.918 2.937 2.906 7.687-.032 10.605-8.046 8.004-18.62 12.008-29.195 12.008zM307.27 237.918c-10.575 0-21.149-4-29.196-12.008-2.937-2.918-2.953-7.668-.031-10.605s7.672-2.95 10.605-.032c10.27 10.211 26.977 10.211 37.243 0 2.937-2.918 7.687-2.906 10.605.032 2.922 2.937 2.91 7.687-.027 10.605-8.051 8.004-18.625 12.008-29.2 12.008zM246.746 317.754c-14.703 0-29.379-5.547-40.543-16.649-2.937-2.921-2.95-7.668-.027-10.605s7.668-2.95 10.605-.027c16.57 16.48 43.637 16.382 60.328-.22a7.506 7.506 0 0 1 10.61.032c2.918 2.938 2.906 7.688-.031 10.606-11.301 11.238-26.137 16.863-40.942 16.863zm0 0" fill="#72563c" data-original="#72563c" class=""></path></g><path fill="#ffaf10" d="M451.703 189.48c-1.23 0-2.34-.75-2.793-1.898-6.047-15.227-10.64-19.82-25.86-25.871a3.009 3.009 0 0 1 0-5.59c15.22-6.05 19.813-10.644 25.86-25.871a3.003 3.003 0 0 1 5.586 0c6.047 15.227 10.64 19.82 25.86 25.871a3.009 3.009 0 0 1 0 5.59c-15.22 6.05-19.813 10.644-25.86 25.871a3.005 3.005 0 0 1-2.793 1.898zm0 0" data-original="#ffaf10" class=""></path><path fill="#f39600" d="M433.742 151.316c-.094-.035-.176-.082-.265-.129-2.836 1.704-6.223 3.266-10.426 4.934a3.009 3.009 0 0 0 0 5.59c15.219 6.05 19.812 10.644 25.86 25.871a3.005 3.005 0 0 0 5.586 0c1.698-4.281 3.284-7.723 5.023-10.59-6.008-15.066-10.625-19.648-25.778-25.676zm0 0" data-original="#f39600" class=""></path><path fill="#ffcb00" d="M56.172 189.793a3 3 0 0 1-2.793-1.895c-6.05-15.23-10.64-19.824-25.863-25.875-1.145-.453-1.895-1.562-1.895-2.793s.75-2.34 1.895-2.796c15.222-6.051 19.812-10.645 25.863-25.871a3 3 0 0 1 2.793-1.895c1.23 0 2.336.75 2.789 1.894 6.047 15.231 10.64 19.82 25.86 25.872 1.144.457 1.894 1.566 1.894 2.796s-.75 2.34-1.895 2.793c-15.218 6.051-19.812 10.645-25.86 25.875a2.998 2.998 0 0 1-2.788 1.895zm0 0" data-original="#ffcb00"></path><path fill="#ffaf10" d="M38.152 151.637c-.082-.035-.16-.078-.238-.117-2.832 1.695-6.21 3.25-10.398 4.914a3.009 3.009 0 0 0 0 5.59c15.222 6.05 19.812 10.644 25.863 25.874a3 3 0 0 0 2.793 1.895c1.23 0 2.336-.75 2.789-1.895 1.691-4.253 3.266-7.68 4.992-10.535-6.02-15.11-10.629-19.695-25.8-25.726zM100.352 66.7c-1 0-1.895-.61-2.262-1.536-4.906-12.351-8.63-16.078-20.973-20.984a2.435 2.435 0 0 1-1.535-2.262c0-1.004.61-1.898 1.535-2.27 12.344-4.906 16.067-8.632 20.973-20.98a2.437 2.437 0 0 1 4.527 0c4.906 12.348 8.63 16.074 20.969 20.98a2.44 2.44 0 0 1 1.539 2.27c0 .996-.61 1.895-1.54 2.262-12.339 4.906-16.062 8.632-20.968 20.98a2.434 2.434 0 0 1-2.265 1.54zm0 0" data-original="#ffaf10" class=""></path><path fill="#f39600" d="M108.434 53.969c-4.739-11.93-8.399-15.817-19.766-20.489-2.844 2.313-6.457 4.145-11.55 6.168a2.442 2.442 0 0 0-1.536 2.27c0 1 .61 1.895 1.535 2.262 12.344 4.91 16.067 8.636 20.973 20.984a2.437 2.437 0 0 0 4.527 0c1.93-4.86 3.68-8.371 5.84-11.156-.004-.012-.016-.028-.023-.04zm0 0" data-original="#f39600" class=""></path><path fill="#c7c8ca" d="M86.313 343.602 2.84 435.449a9.602 9.602 0 0 0-.004 13.63c3.785 3.76 9.918 3.76 13.703-.005l92.352-83.015zm0 0" data-original="#c7c8ca" class=""></path><path fill="#a7a9ac" d="m94.988 352.23-8.675-8.628L2.84 435.449a9.602 9.602 0 0 0-.004 13.63c3.785 3.76 9.918 3.76 13.703-.005l4.164-3.746a9.588 9.588 0 0 1 .992-12.453zm0 0" data-original="#a7a9ac"></path><path fill="#9b5729" d="M172.648 280.258c-16.168-16.078-40.378-22.024-64.765-15.899a5.74 5.74 0 0 0-4.336 5.18l-3.649 55.316 27.899 27.747 55.625-3.63a5.745 5.745 0 0 0 5.203-4.308c6.16-24.254.188-48.332-15.977-64.406zm0 0" data-original="#9b5729" class=""></path><path fill="#7f441c" d="m122.602 298.664 1.992-30.187a6.324 6.324 0 0 1 4.773-5.704 98.41 98.41 0 0 1 2.477-.582c-7.774-.558-15.856.137-23.961 2.172a5.732 5.732 0 0 0-4.336 5.176l-3.649 55.316 4.422 4.399zm0 0" data-original="#7f441c" class=""></path><path fill="#602f0e" d="M161.531 316.965a7.503 7.503 0 0 0-10.273-2.64L119.5 333.097l18.836-31.516a7.5 7.5 0 0 0-2.59-10.285 7.505 7.505 0 0 0-10.289 2.59l-21.137 35.367 19.075 18.965 35.496-20.98a7.506 7.506 0 0 0 2.64-10.274zm0 0" data-original="#602f0e" class=""></path><path fill="#8a8c8e" d="M119.906 371.156c-2.008 2-5.297 2-7.304 0l-31.36-31.187a5.135 5.135 0 0 1 0-7.266l10.332-10.273c2.008-2 5.293-2 7.305 0l31.36 31.187a5.14 5.14 0 0 1 0 7.27zm0 0" data-original="#8a8c8e"></path><path fill="#6d6e71" d="m93.723 346.52 11.562-11.497c1.258-1.253 2.965-1.777 4.621-1.625L98.88 322.43c-2.012-2-5.297-2-7.309 0l-10.328 10.273a5.128 5.128 0 0 0 0 7.266l10.809 10.754a5.72 5.72 0 0 1 1.672-4.203zm0 0" data-original="#6d6e71"></path><path fill="#ff99a3" d="M322.43 316.922a9.832 9.832 0 0 1 6.992 2.883l17.586 17.488a46.702 46.702 0 0 0 15.707.266l-25.582-25.438a9.729 9.729 0 0 1-2.89-6.95 9.742 9.742 0 0 1 2.89-6.944c1.87-1.86 4.351-2.883 6.992-2.883s5.125 1.023 6.992 2.883l31.442 31.265a46.679 46.679 0 0 0 8.07-7.324l-17.8-17.703a9.732 9.732 0 0 1-2.895-6.95 9.73 9.73 0 0 1 2.894-6.945 9.846 9.846 0 0 1 6.992-2.883 9.862 9.862 0 0 1 6.996 2.883l13.512 13.442a45.747 45.747 0 0 0 1.586-11.953c0-25.43-20.73-46.043-46.297-46.043-25.57 0-46.297 20.613-46.297 46.043a45.63 45.63 0 0 0 8.207 26.164 9.848 9.848 0 0 1 4.903-1.301zm0 0" data-original="#ff99a3"></path><path fill="#ff788c" d="M322.43 316.922a9.832 9.832 0 0 1 6.992 2.883l17.586 17.488c2.793.52 5.668.805 8.61.805 2.41 0 4.765-.203 7.073-.559l-2.41-2.398c-17.52-6.559-29.984-23.368-29.984-43.086 0-21.836 15.293-40.114 35.808-44.84a46.615 46.615 0 0 0-10.488-1.2c-25.566 0-46.297 20.614-46.297 46.04 0 9.722 3.04 18.734 8.207 26.168a9.848 9.848 0 0 1 4.903-1.301zm0 0" data-original="#ff788c"></path><path fill="#ffc987" d="M468.785 493.719a5.625 5.625 0 0 1-3.98-1.637l-36.215-36.02a49.276 49.276 0 0 1-12.973 1.735c-13.027 0-25.273-5.043-34.48-14.195l-74.102-73.7c-2.058-2.047-3.191-4.765-3.191-7.656s1.133-5.61 3.191-7.652a10.838 10.838 0 0 1 7.7-3.176c2.902 0 5.64 1.125 7.695 3.168l41.996 41.77 6.297-6.266-55.993-55.684c-2.054-2.047-3.187-4.761-3.187-7.656s1.133-5.61 3.187-7.656a10.848 10.848 0 0 1 7.7-3.172c2.91 0 5.644 1.125 7.699 3.172l55.992 55.683 6.297-6.265-55.988-55.684a10.709 10.709 0 0 1-3.188-7.656c0-2.89 1.133-5.61 3.188-7.656a10.849 10.849 0 0 1 7.695-3.172c2.91 0 5.64 1.129 7.7 3.172l55.991 55.683 6.301-6.265-41.996-41.762c-2.055-2.047-3.187-4.766-3.187-7.656s1.132-5.61 3.187-7.657a10.85 10.85 0 0 1 7.7-3.171 10.85 10.85 0 0 1 7.699 3.171l53.851 53.559v-19.34c0-7.512 6.145-13.617 13.695-13.621 7.551 0 13.692 6.11 13.692 13.621v48.5c6.988 11.356 8.957 25.27 5.398 38.172l36.184 35.988a5.611 5.611 0 0 1 1.66 3.98c0 1.497-.598 2.93-1.66 3.985l-37.586 37.379a5.598 5.598 0 0 1-3.969 1.637zm0 0" data-original="#ffc987"></path><path fill="#ffaf68" d="M434.746 445.457a49.435 49.435 0 0 1-12.973 1.73c-13.03 0-25.273-5.042-34.48-14.195l-74.102-73.695a10.702 10.702 0 0 1-3.148-6.805 10.824 10.824 0 0 0-3.008 2.102 10.713 10.713 0 0 0-3.191 7.656c0 2.89 1.133 5.61 3.191 7.656l74.102 73.696c9.207 9.152 21.453 14.195 34.48 14.195 4.387 0 8.75-.582 12.973-1.73l36.215 36.015a5.629 5.629 0 0 0 3.98 1.64 5.617 5.617 0 0 0 3.973-1.64l4.394-4.371zm0 0" data-original="#ffaf68"></path></g></svg>