<svg xmlns="http://www.w3.org/2000/svg" version="1.1" xmlns:xlink="http://www.w3.org/1999/xlink" xmlns:svgjs="http://svgjs.com/svgjs" width="100" height="100" x="0" y="0" viewBox="0 0 128 128" style="enable-background:new 0 0 512 512" xml:space="preserve" class=""><g><linearGradient id="c" x1="79" x2="121" y1="44.022" y2="44.022" gradientUnits="userSpaceOnUse"><stop offset="0" stop-color="#f0f1f1"></stop><stop offset="1" stop-color="#e5e6e7"></stop></linearGradient><linearGradient id="d" x1="100" x2="123.03" y1="27.515" y2="27.515" gradientUnits="userSpaceOnUse"><stop offset="0" stop-color="#d59a61"></stop><stop offset="1" stop-color="#c07e51"></stop></linearGradient><linearGradient id="a"><stop offset="0" stop-color="#f6cfbe"></stop><stop offset="1" stop-color="#edad99"></stop></linearGradient><linearGradient xlink:href="#a" id="e" x1="-42.189" x2="-33.189" y1="56.79" y2="57.04" gradientUnits="userSpaceOnUse"></linearGradient><linearGradient xlink:href="#a" id="f" x1="2" x2="126.01" y1="63.998" y2="63.998" gradientUnits="userSpaceOnUse"></linearGradient><linearGradient id="b"><stop offset="0" stop-color="#e2dcca"></stop><stop offset=".667" stop-color="#f4eadd"></stop></linearGradient><linearGradient xlink:href="#b" id="g" x1="67.403" x2="63.153" y1="24.619" y2="23.786" gradientUnits="userSpaceOnUse"></linearGradient><linearGradient xlink:href="#b" id="h" x1="169.29" x2="121.284" y1="51.543" y2="51.043" gradientUnits="userSpaceOnUse"></linearGradient><linearGradient id="i" x1="100" x2="100" y1="11.833" y2="68.502" gradientUnits="userSpaceOnUse"><stop offset="0" stop-color="#ffd385"></stop><stop offset=".824" stop-color="#ff9b34"></stop></linearGradient><linearGradient xlink:href="#b" id="j" x1="76.687" x2="66.854" y1="44.026" y2="43.859" gradientUnits="userSpaceOnUse"></linearGradient><path fill="url(#c)" d="M110 55.022H90c-6.075 0-11-4.925-11-11v-11h42v11c0 6.075-4.925 11-11 11z" data-original="url(#c)" class=""></path><path fill="url(#d)" d="m122 19-13 24-9-1 15-27.001c3.042-5.874 10.81-2.236 7 4.001z" data-original="url(#d)"></path><path fill="url(#e)" d="M77.99 108c-2.688-.036-4.109-.498-5.174-1.192-2.703-1.762-5.168-6.544-7.26-8.812C54.672 86.199 46.263 75.994 44.99 74c-18-21-36-56-36-56C6.529 12.679 4.189 8.497 2 5v49c17.996 23.012 33.99 32 33.99 32 2.25 1.542 3 3 3 5 0 2.817-.4 5.565-1 9-.725 4.148 3.451 5.806 6 6 2.362.151 7.655-.339 10 0 2.032.294 3.091.939 5 2 2.005 1.114 3.06 1.815 5 3 6.308 2.998 12.838 2.002 15 1 2.062-1.094.578-3.979-1-4z" data-original="url(#e)"></path><path fill="url(#f)" d="M82 99c2.25 1.542 3 3 3 5 0 2.817-.4 5.565-1 9-.725 4.148 3.451 5.806 6 6 2.362.151 7.655-.339 10 0 2.032.294 3.091.939 5 2 2.005 1.114 3.06 1.815 5 3 6.308 2.998 12.838 2.002 15 1 2.062-1.094.578-3.979-1-4-2.688-.036-4.109-.498-5.174-1.192-2.703-1.762-5.168-6.544-7.26-8.812C100.682 99.199 92.273 88.994 91 87 73 66 55 31 55 31 41.125 1 31 2 31 2 12.625 2 2 54 2 54v65c10 0 17-14 17-14 7-10 13.999-60 13.999-60C55.999 85 82 99 82 99z" data-original="url(#f)" class=""></path><path fill="url(#g)" d="M121.989 33.022H78.011a2.01 2.01 0 1 1 0-4.022h43.978a2.01 2.01 0 1 1 0 4.022z" data-original="url(#g)"></path><path fill="url(#h)" d="M75.046 65.272C63.699 47.909 55 31 55 31c-.353-.764-.703-1.495-1.051-2.219L44 37c-.708.661-1.843 1.404 0 4l19 30c.682 1.002 1.344 1.656 4 0z" data-original="url(#h)" class=""></path><path fill="url(#i)" d="M121 41.581C116.637 40.559 115.537 38 109 38c-8.167 0-8.833 4-17 4-7.006 0-7.771-2.938-13-3.774v5.796c0 6.075 4.925 11 11 11h20c6.075 0 11-4.925 11-11z" data-original="url(#i)"></path><path fill="url(#j)" d="M110 56.021H90c-6.617 0-12-5.383-12-12v-11h2v11c0 5.514 4.486 10 10 10h20c5.514 0 10-4.486 10-10v-11h2v11c0 6.618-5.383 12-12 12z" data-original="url(#j)"></path></g></svg>