<svg xmlns="http://www.w3.org/2000/svg" version="1.1" xmlns:xlink="http://www.w3.org/1999/xlink" xmlns:svgjs="http://svgjs.com/svgjs" width="100" height="100" x="0" y="0" viewBox="0 0 512 512" style="enable-background:new 0 0 512 512" xml:space="preserve" class=""><g><g fill-rule="evenodd" clip-rule="evenodd"><path fill="#f9eac7" d="M193.863 488.67V362.272c0-31.664-25.908-57.601-57.6-57.601s-57.601 25.938-57.601 57.601v120.417c0 4.139 1.983 5.981 6.009 5.981z" data-original="#f9eac7"></path><path fill="#f4dbb3" d="M193.863 488.67V362.272c0-31.664-25.908-57.601-57.6-57.601-5.188 0-10.206.709-14.996 2.013 24.464 6.633 42.605 29.112 42.605 55.588V488.67z" data-original="#f4dbb3"></path><path fill="#f9eac7" d="M309.065 488.67V287.295c0-31.692-25.909-57.601-57.601-57.601-31.691 0-57.602 25.909-57.602 57.601V488.67z" data-original="#f9eac7"></path><path fill="#f4dbb3" d="M309.065 488.67V287.295c0-31.692-25.909-57.601-57.601-57.601a56.99 56.99 0 0 0-14.995 1.984c24.463 6.633 42.604 29.112 42.604 55.617V488.67z" data-original="#f4dbb3"></path><path fill="#f9eac7" d="M424.267 482.689V312.268c0-31.663-25.908-57.6-57.601-57.6-31.691 0-57.601 25.937-57.601 57.6V488.67h109.191c3.941 0 6.011-2.126 6.011-5.981z" data-original="#f9eac7"></path><path fill="#f4dbb3" d="M424.267 482.689V312.268c0-31.663-25.908-57.6-57.601-57.6-5.188 0-10.205.708-14.996 2.012 24.463 6.633 42.607 29.112 42.607 55.588v170.421c0 3.855-2.098 5.981-6.01 5.981h29.99c3.94 0 6.01-2.126 6.01-5.981z" data-original="#f4dbb3"></path><path fill="#e28086" d="M396.657 243.811v48.104c0 16.498-13.494 29.991-29.991 29.991-16.498 0-29.991-13.493-29.991-29.991v-48.104c0-7.795 6.35-14.174 14.146-14.174h31.692c7.795 0 14.144 6.379 14.144 14.174zm-230.403 50.004v48.104c0 16.498-13.492 29.991-29.99 29.991-16.499 0-29.991-13.494-29.991-29.991v-48.104c0-7.795 6.35-14.173 14.145-14.173h31.692c7.794 0 14.144 6.378 14.144 14.173zm115.201-75.006v48.104c0 16.499-13.493 29.991-29.99 29.991-16.498 0-29.991-13.493-29.991-29.991v-48.104c0-7.795 6.35-14.173 14.145-14.173h31.691c7.795 0 14.145 6.378 14.145 14.173z" data-original="#e28086"></path><path fill="#dd636e" d="M396.657 243.811v48.104c0 16.498-13.494 29.991-29.991 29.991a29.686 29.686 0 0 1-14.996-4.054c8.958-5.188 14.996-14.882 14.996-25.937v-48.104c0-7.795-6.379-14.174-14.145-14.174h29.992c7.795 0 14.144 6.379 14.144 14.174zm-230.403 50.004v48.104c0 16.498-13.492 29.991-29.99 29.991a29.689 29.689 0 0 1-14.996-4.054c8.958-5.188 14.996-14.882 14.996-25.938v-48.104c0-7.795-6.378-14.173-14.146-14.173h29.991c7.795.001 14.145 6.379 14.145 14.174zm115.201-75.006v48.104c0 16.499-13.493 29.991-29.99 29.991a29.956 29.956 0 0 1-14.995-4.025c8.957-5.216 14.995-14.911 14.995-25.966v-48.104c0-7.795-6.378-14.173-14.145-14.173h29.991c7.794 0 14.144 6.378 14.144 14.173z" data-original="#dd636e"></path></g><path fill="#eac89f" d="M357.141 384.411c-4.138 0-7.512-3.345-7.512-7.483a7.507 7.507 0 0 1 7.512-7.512h19.049a7.507 7.507 0 0 1 7.513 7.512c0 4.139-3.374 7.483-7.513 7.483zm-230.403 50.004a7.507 7.507 0 0 1-7.512-7.512c0-4.139 3.373-7.483 7.512-7.483h19.05c4.139 0 7.512 3.345 7.512 7.483a7.507 7.507 0 0 1-7.512 7.512zm-12.302 29.991c-4.139 0-7.512-3.345-7.512-7.483 0-4.139 3.373-7.512 7.512-7.512h43.654c4.139 0 7.513 3.374 7.513 7.512s-3.374 7.483-7.513 7.483zM241.94 359.409c-4.139 0-7.512-3.345-7.512-7.483s3.373-7.512 7.512-7.512h19.049c4.139 0 7.512 3.373 7.512 7.512s-3.373 7.483-7.512 7.483zm-12.302 30.019c-4.139 0-7.512-3.373-7.512-7.512s3.373-7.512 7.512-7.512h43.653c4.139 0 7.513 3.373 7.513 7.512s-3.374 7.512-7.513 7.512zm115.201 24.974c-4.139 0-7.512-3.345-7.512-7.483 0-4.139 3.373-7.512 7.512-7.512h43.654c4.139 0 7.512 3.373 7.512 7.512s-3.373 7.483-7.512 7.483z" data-original="#eac89f"></path><path fill="#dd636e" fill-rule="evenodd" d="M336.703 23.33H490.06c12.075 0 21.94 9.893 21.94 21.969v62.788c0 12.076-9.865 21.94-21.94 21.94H336.703l-67.636-53.349z" clip-rule="evenodd" data-original="#dd636e"></path><path fill="#dd636e" fill-rule="evenodd" d="M460.04 23.33h30.02c12.075 0 21.94 9.893 21.94 21.969v62.788c0 12.076-9.865 21.94-21.94 21.94h-30.02c12.076 0 21.97-9.865 21.97-21.94V45.298c0-12.075-9.894-21.968-21.97-21.968z" clip-rule="evenodd" data-original="#dd636e"></path><path fill="#407093" d="M269.067 69.195a7.476 7.476 0 0 1 7.484 7.483c0 4.139-3.346 7.512-7.484 7.512H53.378c-4.139 0-7.483-3.373-7.483-7.512a7.476 7.476 0 0 1 7.483-7.483z" data-original="#407093"></path><path fill="#e28086" fill-rule="evenodd" d="M63.469 81.157c-12.444 10.602-28.404 19.134-39.855 19.134C10.573 100.291 0 89.718 0 76.678s10.573-23.613 23.613-23.613c11.451 0 27.411 8.561 39.855 19.134 3.261 3.204 3.232 6.18.001 8.958z" clip-rule="evenodd" data-original="#e28086"></path><path fill="#9dc6fb" fill-rule="evenodd" d="M291.008 23.33c-12.075 0-21.94 9.893-21.94 21.969v62.788c0 12.076 9.865 21.94 21.94 21.94h45.695V23.33z" clip-rule="evenodd" data-original="#9dc6fb" class=""></path><path fill="#da4a54" fill-rule="evenodd" d="M402.44 23.33h34.215v106.697H402.44z" clip-rule="evenodd" data-original="#da4a54"></path><path fill="#80b4fb" fill-rule="evenodd" d="M306.713 23.33h29.99v106.697h-29.99z" clip-rule="evenodd" data-original="#80b4fb"></path><path fill="#ffe09f" fill-rule="evenodd" d="m106.98 129.148-13.861 25.768c-.907 1.701-2.296 2.721-4.252 3.09l-28.8 5.216c-1.871.34-2.183 1.247-.851 2.636l20.211 21.146c1.333 1.389 1.899 3.033 1.645 5.018l-3.941 28.999c-.255 1.842.539 2.466 2.239 1.616l26.362-12.699c1.729-.822 3.572-.793 5.272 0l26.363 12.699c1.843.879 2.494.284 2.239-1.616l-3.912-28.999c-.312-2.126.341-3.686 1.616-5.018l20.211-21.146c1.275-1.333 1.275-2.239-.851-2.636l-28.772-5.216c-1.956-.34-3.373-1.446-4.28-3.09l-13.861-25.768c-.792-1.502-1.954-1.53-2.777 0z" clip-rule="evenodd" data-original="#ffe09f"></path></g></svg>