<svg xmlns="http://www.w3.org/2000/svg" version="1.1" xmlns:xlink="http://www.w3.org/1999/xlink" xmlns:svgjs="http://svgjs.com/svgjs" width="100" height="100" x="0" y="0" viewBox="0 0 512 512" style="enable-background:new 0 0 512 512" xml:space="preserve" class=""><g><path fill="#6a61b2" d="M434.111 175.335s5.589-25.296 5.589-38.762C439.7 61.146 378.554 0 303.127 0c-34.266 0-65.58 12.624-89.557 33.471-5.105 4.439-11.833 6.561-18.551 5.771C29.746 19.816 85.044 190.846 79.149 252.151c-4.172 43.386-63.845 84.341-26.909 122.371 93.456 96.223 249.093 111.38 364.587 38.93 127.534-80.003-10.791-123.65 17.284-238.117z" data-original="#6a61b2" class=""></path><path fill="#5f55ad" d="M434.111 175.335s5.589-25.296 5.589-38.762C439.7 61.146 378.554 0 303.127 0c-5.235 0-10.401.298-15.483.872 68.165 7.662 121.151 65.49 121.151 135.702 0 13.466-5.589 38.762-5.589 38.762-28.075 114.466 110.25 158.114-17.284 238.117-43.981 27.589-93.783 42.46-143.756 45.002 60.079 3.06 121.606-11.72 174.662-45.002 127.534-80.004-10.792-123.651 17.283-238.118zM272.958 93.492c-.467-.011-.947-.007-1.415-.007-30.019.031-60.036 10.364-82.112 34.901v-16.45c0-24.183 19.607-43.791 43.79-43.791 12.097 0 23.04 4.902 30.973 12.825a43.908 43.908 0 0 1 8.764 12.522z" data-original="#5f55ad"></path><path fill="#ebae9d" d="M180.306 204.865v75.114c-4.07.623-8.313.955-12.675.955-31.476 0-56.989-17.247-56.989-38.512 0-21.276 25.512-38.512 56.989-38.512 4.362 0 8.605.332 12.675.955z" data-original="#ebae9d"></path><path fill="#ffcdbe" d="M435.282 497.443v6.142a8.417 8.417 0 0 1-8.416 8.415H310.363l-39.066-10-39.032 10H115.731a8.414 8.414 0 0 1-8.417-8.417v-6.14c0-57.072 67.992-69.352 109.55-81.941a10.648 10.648 0 0 0 7.572-10.199v-87.597h93.724v87.595a10.65 10.65 0 0 0 7.572 10.201c41.557 12.589 109.55 24.868 109.55 81.941z" data-original="#ffcdbe" class=""></path><path fill="#ebae9d" d="M325.731 415.503a10.656 10.656 0 0 1-7.572-10.201v-87.595h-30.907v96.864c0 4.7 3.074 8.841 7.572 10.203 41.558 12.588 109.553 15.592 109.553 72.668v6.144a8.414 8.414 0 0 1-8.414 8.414h30.904a8.417 8.417 0 0 0 8.416-8.415v-6.142c-.001-57.076-67.993-69.353-109.552-81.94z" data-original="#ebae9d"></path><path fill="#ffcdbe" d="M387.757 239.091c.001 82.272-77.656 137.985-116.46 137.985s-116.46-55.713-116.46-137.985c0-106.548 58.353-145.558 116.706-145.607 61.444-.052 116.212 39.059 116.214 145.607z" data-original="#ffcdbe" class=""></path><path fill="#ebae9d" d="M271.544 93.484a126.7 126.7 0 0 0-14.918.892c54.645 6.236 100.224 46.118 100.225 140.504.001 79.892-77.656 133.994-116.46 133.994 11.388 5.35 22.139 8.202 30.905 8.202 38.804 0 116.461-55.713 116.46-137.985-.001-106.548-54.768-145.659-116.212-145.607z" data-original="#ebae9d"></path><path fill="#6a61b2" d="M389.315 123.758 251.17 36.935l-17.948 31.209c24.186 0 43.794 19.606 43.794 43.793v74.102c0 55.589 45.064 100.654 100.654 100.654h39.155z" data-original="#6a61b2" class=""></path><path fill="#f5de46" d="M343.706 177.579c24.096 7.973 34.519 18.397 42.492 42.492 2.169 6.556 11.365 6.556 13.535 0 7.973-24.096 18.397-34.519 42.492-42.492 6.556-2.169 6.556-11.365 0-13.535-24.096-7.973-34.519-18.397-42.492-42.492-2.169-6.556-11.365-6.556-13.535 0-7.973 24.096-18.397 34.519-42.492 42.492-6.555 2.17-6.555 11.366 0 13.535z" data-original="#f5de46"></path><path fill="#ecc52e" d="M384.574 53.306c15.776 5.22 22.6 12.044 27.82 27.82 1.42 4.292 7.441 4.292 8.861 0 5.22-15.776 12.044-22.6 27.82-27.82 4.292-1.42 4.292-7.441 0-8.861-15.776-5.22-22.6-12.044-27.82-27.82-1.42-4.292-7.441-4.292-8.861 0-5.22 15.776-12.044 22.6-27.82 27.82-4.292 1.42-4.292 7.44 0 8.861z" data-original="#ecc52e"></path><path fill="#e8a2cb" d="M274.834 477.767a7.726 7.726 0 0 1-.558-15.432c20.313-1.493 40.019-18.293 55.487-47.304a7.724 7.724 0 0 1 10.453-3.183 7.726 7.726 0 0 1 3.183 10.453c-18.052 33.858-42.198 53.549-67.99 55.445a7.952 7.952 0 0 1-.575.021z" data-original="#e8a2cb"></path><path fill="#e8a2cb" d="M267.763 477.767c-.19 0-.381-.007-.574-.021-25.792-1.895-49.939-21.587-67.991-55.445a7.726 7.726 0 0 1 13.636-7.27c15.468 29.011 35.174 45.81 55.488 47.304a7.726 7.726 0 0 1-.559 15.432z" data-original="#e8a2cb"></path><g fill="#e09380"><path d="M271.297 311.813c-9.994 0-19.984-2.355-29.908-7.067a7.501 7.501 0 0 1 6.433-13.551c15.794 7.5 31.151 7.502 46.949 0a7.5 7.5 0 0 1 6.433 13.551c-9.921 4.711-19.916 7.067-29.907 7.067zM240.331 210.344a7.462 7.462 0 0 1-4.509-1.512c-8.812-6.642-26.764-6.644-35.577 0a7.497 7.497 0 0 1-10.503-1.474 7.498 7.498 0 0 1 1.474-10.503c14.286-10.771 39.352-10.771 53.636 0a7.498 7.498 0 0 1-4.521 13.489zM218.033 241.587a7.499 7.499 0 0 1-7.5-7.5v-4.821c0-4.143 3.357-7.5 7.5-7.5s7.5 3.357 7.5 7.5v4.821a7.5 7.5 0 0 1-7.5 7.5z" fill="#e09380" data-original="#e09380"></path></g><path fill="#e5d5f5" d="M134.258 305.471a7.499 7.499 0 0 1-7.5-7.5v-43.525c0-4.143 3.357-7.5 7.5-7.5s7.5 3.357 7.5 7.5v43.525a7.5 7.5 0 0 1-7.5 7.5z" data-original="#e5d5f5"></path><path fill="#e279b3" d="M310.363 512h-78.129c0-.206.01-.423.031-.639 1.226-14.68 16.689-33.265 29.453-46.266a13.344 13.344 0 0 1 9.581-4.018c3.626 0 7.036 1.432 9.581 4.018 12.764 13.001 28.227 31.586 29.453 46.266.019.216.03.433.03.639z" data-original="#e279b3"></path></g></svg>