<svg xmlns="http://www.w3.org/2000/svg" version="1.1" xmlns:xlink="http://www.w3.org/1999/xlink" xmlns:svgjs="http://svgjs.com/svgjs" width="100" height="100" x="0" y="0" viewBox="0 0 53 53" style="enable-background:new 0 0 512 512" xml:space="preserve" class=""><g><path fill="#ffaf93" d="M40.727 11.75v9.05c0 2.58-.27 5.16-.8 7.67-.52 2.51-1.32 4.97-2.36 7.34-.41.94-.63 1.95-.63 2.97v11.57h-15.46V38.19c0-.58-.18-1.14-.54-1.6-2.3-2.9-4.49-7.54-6.13-11.51-.09-.23-.18-.45-.27-.67-.09-.23-.18-.46-.27-.68-.91-2.28-1.6-4.21-1.96-5.28-.18-.55.13-1.14.67-1.31 2.89-.86 4.96 1.76 6.09 3.82.09.15.17.3.24.44.16.31.29.59.4.84.27.59.4.98.4.98V9.07c0-.75.3-1.42.79-1.9a2.7 2.7 0 0 1 1.91-.79c1.35 0 2.47 1.09 2.47 2.45V5.11c0-.82.39-1.54 1.01-1.99.4-.29.91-.47 1.44-.47a2.7 2.7 0 0 1 2.7 2.69V7.7c0-.05 0-.1.01-.15.06-.74.44-1.39 1-1.79.4-.29.9-.48 1.44-.48 1.49 0 2.7 1.21 2.7 2.7v3.54c0-.1.01-.2.02-.3.08-.7.45-1.31.99-1.7.37-.28.83-.44 1.31-.46.04-.01.09-.01.13-.01.09 0 .18 0 .27.01 1.37.14 2.43 1.29 2.43 2.69z" data-original="#ffaf93" class=""></path><path fill="#ee8778" d="M22.607 36.59c.36.46.54 1.02.54 1.6v12.16h-1.67V38.19c0-.58-.18-1.14-.54-1.6-2.3-2.9-4.49-7.54-6.13-11.51-.09-.23-.18-.45-.27-.67-.09-.23-.18-.46-.27-.68-.91-2.28-1.6-4.21-1.96-5.28-.18-.55.13-1.14.67-1.31.69-.21 1.34-.21 1.94-.07-.09.02-.18.04-.27.07-.54.17-.85.76-.67 1.31.36 1.07 1.05 3 1.96 5.28.09.22.18.45.27.68.09.22.18.44.27.67 1.64 3.97 3.83 8.61 6.13 11.51zM26.287 12.14v7.72c0 .27-.24.51-.51.51a.51.51 0 0 1-.5-.51v-7.72zM26.287 3.12v9.02h-1.01V5.11c0-.82.39-1.54 1.01-1.99zM30.425 7.699v10.648a.5.5 0 0 0 .505.505.507.507 0 0 0 .505-.505V5.759a2.476 2.476 0 0 0-1.01 1.94zM35.577 11.517v7.001c0 .273.222.506.505.506a.513.513 0 0 0 .505-.506v-9a2.478 2.478 0 0 0-1.01 2z" data-original="#ee8778"></path><path fill="#fdbb9f" d="M30.423 7.695V5.113" data-original="#fdbb9f"></path><path fill="#ab604b" d="M25.277 8.83v7.04h-5.17v-6.8c0-.75.3-1.42.79-1.9a2.7 2.7 0 0 1 1.91-.79c1.35 0 2.47 1.09 2.47 2.45zM18.597 20.17l-3.31 1.9-1.37.78c-.73-1.89-1.29-3.47-1.61-4.4-.18-.55.13-1.14.67-1.31.637-.18 1.122-.198 1.53-.14.14.02.28.04.41.07 1.58.36 2.81 1.75 3.68 3.1zM30.437 7.55v4.59h-5.16V5.11c0-.82.39-1.54 1.01-1.99.4-.29.91-.47 1.44-.47a2.7 2.7 0 0 1 2.7 2.69V7.7c0-.05 0-.1.01-.15z" data-original="#ab604b"></path><path fill="#8b4f4f" d="M26.287 3.12v9.02h-1.01V5.11c0-.82.39-1.54 1.01-1.99z" data-original="#8b4f4f"></path><path fill="#ab604b" d="M20.11 17.37h5.166v1.439H20.11zM19.707 22.24l-3.55 2.06-1.35.78c-.09-.23-.18-.45-.27-.67-.09-.23-.18-.46-.27-.68l1.36-.79 3.44-1.98c.09.15.17.3.24.44.16.31.29.59.4.84zM25.273 13.64h5.166v1.439h-5.166z" data-original="#ab604b"></path><path fill="#8b4f4f" d="M25.273 13.64h.998v1.439h-.998z" data-original="#8b4f4f"></path><path fill="#ab604b" d="M35.597 11.22v3.1h-5.16V7.55c.01-.09.02-.18.04-.27.01-.07.03-.14.05-.21.01-.06.03-.11.05-.16.16-.47.47-.87.86-1.15.4-.29.9-.48 1.44-.48 1.49 0 2.7 1.21 2.7 2.7v3.54c0-.1.01-.2.02-.3z" data-original="#ab604b"></path><path fill="#8b4f4f" d="M31.437 5.76v8.56h-1V7.55c.01-.09.02-.18.04-.27.01-.07.03-.14.05-.21.01-.06.03-.11.05-.16.16-.47.47-.87.86-1.15z" data-original="#8b4f4f"></path><path fill="#ab604b" d="M40.727 11.75v3.5h-5.13v-4.03c.01-.11.03-.21.06-.32.02-.08.04-.17.08-.25a.86.86 0 0 1 .07-.17c.02-.06.05-.11.08-.16a1.856 1.856 0 0 1 .28-.41c.12-.15.26-.28.42-.39.37-.28.83-.44 1.31-.46h.4c1.37.14 2.43 1.29 2.43 2.69z" data-original="#ab604b"></path><path fill="#8b4f4f" d="M36.587 9.52v5.73h-.99v-4.03c.01-.11.03-.21.06-.32.02-.08.04-.17.08-.25a.86.86 0 0 1 .07-.17c.02-.06.05-.11.08-.16a1.856 1.856 0 0 1 .28-.41c.12-.15.26-.28.42-.39z" data-original="#8b4f4f"></path><path fill="#ab604b" d="M30.433 15.821h5.166v1.439h-5.166z" data-original="#ab604b"></path><path fill="#8b4f4f" d="M30.433 15.821h1.003v1.439h-1.003z" data-original="#8b4f4f"></path><path fill="#ab604b" d="M35.578 16.751h5.166v1.439h-5.166z" data-original="#ab604b"></path><path fill="#8b4f4f" d="M35.578 16.751h1.008v1.439h-1.008z" data-original="#8b4f4f"></path><path fill="#ab604b" d="M21.477 41.182h15.46v5.125h-15.46z" data-original="#ab604b"></path><path fill="#8b4f4f" d="M21.477 41.182h1.67v5.125h-1.67zM15.287 22.07l-1.37.78c-.73-1.89-1.29-3.47-1.61-4.4-.18-.55.13-1.14.67-1.31.637-.18 1.122-.198 1.53-.14.14.02.28.04.41.07-.09.02-.18.04-.27.07-.54.17-.85.76-.67 1.31.27.8.72 2.07 1.31 3.62zM16.157 24.3l-1.35.78c-.09-.23-.18-.45-.27-.67-.09-.23-.18-.46-.27-.68l1.36-.79c.1.26.2.52.31.79.08.18.15.38.22.57z" data-original="#8b4f4f"></path><path fill="#ab604b" d="M34.965 31.383c.601.63.933 1.416 1.083 1.852a.309.309 0 0 1-.234.407c-.455.09-1.31.2-2.161-.01a.304.304 0 0 0-.368.368c.207.847.103 1.688.017 2.138a.308.308 0 0 1-.406.236c-.439-.15-1.232-.48-1.868-1.088a.304.304 0 0 0-.502.135c-.244.837-.76 1.517-1.062 1.864a.308.308 0 0 1-.47 0c-.294-.34-.791-.997-1.04-1.808a.304.304 0 0 0-.503-.13c-.637.621-1.442.958-1.883 1.107a.31.31 0 0 1-.406-.235c-.09-.457-.2-1.318.014-2.176a.308.308 0 0 0-.379-.377c-.863.222-1.728.11-2.185.02a.31.31 0 0 1-.235-.407c.15-.442.487-1.25 1.11-1.886a.306.306 0 0 0-.145-.51c-.854-.238-1.55-.761-1.904-1.067a.31.31 0 0 1 0-.47c.35-.308 1.043-.833 1.894-1.072a.306.306 0 0 0 .143-.51c-.626-.637-.967-1.448-1.119-1.893a.31.31 0 0 1 .236-.407c.456-.09 1.316-.198 2.173.019a.308.308 0 0 0 .378-.38c-.22-.862-.11-1.729-.019-2.188a.31.31 0 0 1 .408-.234c.442.151 1.247.49 1.883 1.113.17.165.447.083.51-.146.237-.853.762-1.548 1.068-1.901a.31.31 0 0 1 .472 0c.314.36.857 1.077 1.09 1.956.06.23.336.314.508.15.633-.607 1.429-.941 1.868-1.091a.309.309 0 0 1 .407.235c.088.454.194 1.307-.018 2.156a.304.304 0 0 0 .367.369c.847-.208 1.695-.102 2.148-.014a.309.309 0 0 1 .235.407c-.15.438-.485 1.231-1.092 1.867a.304.304 0 0 0 .134.502c.837.245 1.518.76 1.865 1.063a.308.308 0 0 1 0 .47c-.35.303-1.034.821-1.876 1.064a.304.304 0 0 0-.136.502z" data-original="#ab604b"></path><circle cx="29.207" cy="29.516" r="3.004" fill="#8b4f4f" data-original="#8b4f4f"></circle></g></svg>