<svg xmlns="http://www.w3.org/2000/svg" version="1.1" xmlns:xlink="http://www.w3.org/1999/xlink" xmlns:svgjs="http://svgjs.com/svgjs" width="100" height="100" x="0" y="0" viewBox="0 0 512 512" style="enable-background:new 0 0 512 512" xml:space="preserve" class=""><g><path d="M256.927 125.796c76.227 0 141.299 55.318 153.307 130.593 4.834 30.303 7.288 82.65 5.327 102.944C405.972 458.584 317.377 512 256.927 512S107.882 458.584 98.293 359.332c-1.961-20.293.493-72.641 5.327-102.944 12.009-75.274 77.081-130.592 153.307-130.592z" style="" fill="#85ece5" data-original="#85ece5"></path><path d="M410.234 256.388c-12.009-75.275-77.08-130.593-153.307-130.593-2.391 0-4.77.055-7.138.162 66.847 3.327 122.997 57.517 133.632 130.43 4.42 30.303 6.663 82.65 4.87 102.944-8.428 95.413-83.603 148.458-138.503 152.419 2.416.159 4.801.249 7.139.249 60.45 0 149.045-53.416 158.635-152.668 1.961-20.292-.493-72.64-5.328-102.943z" style="" fill="#1dcec3" data-original="#1dcec3"></path><path d="M308.663 430.154c0 15.038-98.434 15.038-98.434 0a2.08 2.08 0 0 1 .593-.386c15.872-6.914 20.553-14.912 35.875-17.69a51.6 51.6 0 0 1 2.314-.368l.018-.002c3.576-.175 6.775 1.36 8.72 3.795.939 1.176 2.789 1.176 3.727 0 1.841-2.309 4.813-3.809 8.164-3.809.049 0 .095 0 .144.003a54.386 54.386 0 0 1 3.298.549c14.62 2.923 19.426 10.743 34.987 17.522.231.1.427.23.594.386z" style="" fill="#ff7870" data-original="#ff7870"></path><path d="M318.413 76.074s114.854-7.117 115.857 129.575c37.153 21.45 19.499 92.238 6.834 119.944a10.653 10.653 0 0 1-7.52 5.997l-17.378 3.634c-13.441-52.844-41.897-137.078-159.279-161.019 39.029-88.012 61.486-98.131 61.486-98.131z" style="" fill="#d8e6f0" data-original="#d8e6f0" class=""></path><path d="M371.136 87.2c-27.129-12.704-52.723-11.126-52.723-11.126s-22.456 10.119-61.485 98.131c23.131 4.718 42.797 11.785 59.587 20.483 31.121-24.283 55.945-52.841 57.717-83.125.461-7.911-.62-16.174-3.096-24.363z" style="" fill="#aac0d1" data-original="#aac0d1"></path><path d="M98.293 359.332c0-45.295 41.253-97.277 91.051-120.652s162.157-80.977 166-146.69S256.803-63.756 128.42 66.521C28.316 168.102 57.451 311.447 65.959 346.515c2.439 10.052 32.334 28.503 32.334 12.817z" style="" fill="#d8e6f0" data-original="#d8e6f0" class=""></path><path d="M434.464 205.769c-.066-.039-.128-.081-.194-.119a220.411 220.411 0 0 0-.913-18.717l-17.126-12.065a7.496 7.496 0 0 0-10.45 1.812 7.498 7.498 0 0 0 1.812 10.45l25.268 17.801a7.481 7.481 0 0 0 1.603.838zM328.309 28.74c-11.556-2.302-23.93-2.339-35.964.141-22.871 4.721-45.078 17.271-67.889 38.363a7.501 7.501 0 0 0 10.184 11.014c20.749-19.188 40.617-30.533 60.735-34.687 17.601-3.625 35.936-.931 49.707 7.189-4.343-7.85-9.981-15.33-16.773-22.02z" style="" fill="#aac0d1" data-original="#aac0d1"></path><circle cx="328.262" cy="318.898" r="46.415" style="" fill="#f9c295" data-original="#f9c295"></circle><path d="M329.68 332.245c-8.084 0-16.169-2.653-24.028-7.961a7.501 7.501 0 0 1 8.394-12.432c10.666 7.203 20.602 7.203 31.268 0a7.5 7.5 0 1 1 8.394 12.432c-7.859 5.308-15.944 7.961-24.028 7.961z" style="" fill="#202d4c" data-original="#202d4c"></path><circle cx="185.593" cy="318.898" r="46.415" style="" fill="#f9c295" data-original="#f9c295"></circle><path d="M184.175 332.245c-8.084 0-16.169-2.653-24.028-7.961a7.501 7.501 0 0 1 8.394-12.432c10.666 7.203 20.602 7.203 31.268 0a7.5 7.5 0 0 1 8.394 12.432c-7.859 5.308-15.944 7.961-24.028 7.961z" style="" fill="#202d4c" data-original="#202d4c"></path></g></svg>